<svg width="387" height="344" viewBox="0 0 387 344" fill="none" xmlns="http://www.w3.org/2000/svg">
<path d="M12 189H376" stroke="white" stroke-width="10"/>
<g filter="url(#filter0_d_3_2)">
<path d="M375 145H12V148C12 247.411 94.0887 328 193.5 328C292.911 328 375 247.411 375 148V145Z" stroke="white" stroke-width="15" shape-rendering="auto"/>
</g>
<path d="M113 4L103.927 12.2393C90.3288 24.5888 93.0909 46.687 109.311 55.3095V55.3095C127.37 64.9099 128.235 90.4717 110.866 101.271L92 113" stroke="white" stroke-width="10"/>
<path d="M279 4L269.927 12.2393C256.329 24.5888 259.091 46.687 275.311 55.3095V55.3095C293.37 64.9099 294.235 90.4717 276.866 101.271L258 113" stroke="white" stroke-width="10"/>
<path d="M193 4L183.927 12.2393C170.329 24.5888 173.091 46.687 189.311 55.3095V55.3095C207.37 64.9099 208.235 90.4717 190.866 101.271L172 113" stroke="white" stroke-width="10"/>
<defs>
<filter id="filter0_d_3_2" x="0.5" y="137.5" width="386" height="206" filterUnits="userSpaceOnUse" color-interpolation-filters="sRGB">
<feFlood flood-opacity="0" result="BackgroundImageFix"/>
<feColorMatrix in="SourceAlpha" type="matrix" values="0 0 0 0 0 0 0 0 0 0 0 0 0 0 0 0 0 0 127 0" result="hardAlpha"/>
<feOffset dy="4"/>
<feGaussianBlur stdDeviation="2"/>
<feComposite in2="hardAlpha" operator="out"/>
<feColorMatrix type="matrix" values="0 0 0 0 0 0 0 0 0 0 0 0 0 0 0 0 0 0 0.25 0"/>
<feBlend mode="normal" in2="BackgroundImageFix" result="effect1_dropShadow_3_2"/>
<feBlend mode="normal" in="SourceGraphic" in2="effect1_dropShadow_3_2" result="shape"/>
</filter>
</defs>
</svg>
