<svg width="314" height="341" viewBox="0 0 314 341" fill="none" xmlns="http://www.w3.org/2000/svg">
<g filter="url(#filter0_d_4_32)">
<path d="M159 38H46.8505V38C25.9462 38 9 54.9462 9 75.8505V108.161M159 328H46.8505V328C25.9462 328 9 311.054 9 290.15V108.161M9 108.161H159" stroke="white" stroke-width="10"/>
<rect x="51" width="18" height="70" fill="white"/>
<path d="M155 38H267.15V38C288.054 38 305 54.9462 305 75.8505V108.161M155 328H267.15V328C288.054 328 305 311.054 305 290.15V108.161M305 108.161H155" stroke="white" stroke-width="10"/>
<rect width="18" height="70" transform="matrix(-1 0 0 1 264 0)" fill="white"/>
<rect x="47" y="262" width="35" height="35" fill="white"/>
<rect x="171" y="262" width="35" height="35" fill="white"/>
<rect x="109" y="262" width="35" height="35" fill="white"/>
<rect x="47" y="201" width="35" height="35" fill="white"/>
<rect x="233" y="201" width="35" height="35" fill="white"/>
<rect x="171" y="201" width="35" height="35" fill="white"/>
<rect x="109" y="201" width="35" height="35" fill="white"/>
<rect x="233" y="140" width="35" height="35" fill="white"/>
<rect x="171" y="140" width="35" height="35" fill="white"/>
<rect x="109" y="140" width="35" height="35" fill="white"/>
</g>
<defs>
<filter id="filter0_d_4_32" x="0" y="0" width="314" height="341" filterUnits="userSpaceOnUse" color-interpolation-filters="sRGB">
<feFlood flood-opacity="0" result="BackgroundImageFix"/>
<feColorMatrix in="SourceAlpha" type="matrix" values="0 0 0 0 0 0 0 0 0 0 0 0 0 0 0 0 0 0 127 0" result="hardAlpha"/>
<feOffset dy="4"/>
<feGaussianBlur stdDeviation="2"/>
<feComposite in2="hardAlpha" operator="out"/>
<feColorMatrix type="matrix" values="0 0 0 0 0 0 0 0 0 0 0 0 0 0 0 0 0 0 0.25 0"/>
<feBlend mode="normal" in2="BackgroundImageFix" result="effect1_dropShadow_4_32"/>
<feBlend mode="normal" in="SourceGraphic" in2="effect1_dropShadow_4_32" result="shape"/>
</filter>
</defs>
</svg>
