<svg width="314" height="341" viewBox="0 0 314 341" fill="none" xmlns="http://www.w3.org/2000/svg">
<g filter="url(#filter0_i_0_1)">
<path d="M159 38H46.8505C25.9462 38 9 54.9462 9 75.8505V108.161M159 328H46.8505C25.9462 328 9 311.054 9 290.15V108.161M9 108.161H159" stroke="white" stroke-width="10"/>
<path d="M69 0H51V70H69V0Z" fill="white"/>
<path d="M155 38H267.15C288.054 38 305 54.9462 305 75.8505V108.161M155 328H267.15C288.054 328 305 311.054 305 290.15V108.161M305 108.161H155" stroke="white" stroke-width="10"/>
<path d="M246 0H264V70H246V0Z" fill="white"/>
</g>
<g filter="url(#filter1_d_0_1)">
<g clip-path="url(#clip0_0_1)">
<g filter="url(#filter2_i_0_1)">
<path d="M113.548 203.76H205.149M113.548 228.188H205.149" stroke="white" stroke-width="9"/>
</g>
<g filter="url(#filter3_i_0_1)">
<path d="M66.5278 188.406V243.23C66.5278 249.762 71.8128 255.057 78.3322 255.057C84.5084 255.057 89.5153 250.041 89.5153 243.853V187.77C89.5153 181.761 84.6539 176.891 78.6571 176.891H78.0215C71.6737 176.891 66.5278 182.046 66.5278 188.406Z" stroke="white" stroke-width="9"/>
</g>
<g filter="url(#filter4_i_0_1)">
<path d="M228.485 188.406V243.23C228.485 249.762 233.77 255.057 240.289 255.057C246.465 255.057 251.472 250.041 251.472 243.853V187.77C251.472 181.761 246.611 176.891 240.614 176.891H239.978C233.631 176.891 228.485 182.046 228.485 188.406Z" stroke="white" stroke-width="9"/>
</g>
<g filter="url(#filter5_i_0_1)">
<path d="M112.503 171.656V271.147C112.503 277.679 107.218 282.974 100.698 282.974C94.5221 282.974 89.5153 277.958 89.5153 271.77V177.236V171.656C89.5153 165.296 94.6612 160.141 101.009 160.141C107.357 160.141 112.503 165.296 112.503 171.656Z" stroke="white" stroke-width="9"/>
</g>
<g filter="url(#filter6_i_0_1)">
<path d="M205.497 171.656V271.147C205.497 277.679 210.782 282.974 217.302 282.974C223.478 282.974 228.485 277.958 228.485 271.77V177.236V171.656C228.485 165.296 223.339 160.141 216.991 160.141C210.643 160.141 205.497 165.296 205.497 171.656Z" stroke="white" stroke-width="9"/>
</g>
</g>
</g>
<defs>
<filter id="filter0_i_0_1" x="4" y="0" width="306" height="337" filterUnits="userSpaceOnUse" color-interpolation-filters="sRGB">
<feFlood flood-opacity="0" result="BackgroundImageFix"/>
<feBlend mode="normal" in="SourceGraphic" in2="BackgroundImageFix" result="shape"/>
<feColorMatrix in="SourceAlpha" type="matrix" values="0 0 0 0 0 0 0 0 0 0 0 0 0 0 0 0 0 0 127 0" result="hardAlpha"/>
<feOffset dy="4"/>
<feGaussianBlur stdDeviation="2"/>
<feComposite in2="hardAlpha" operator="arithmetic" k2="-1" k3="1"/>
<feColorMatrix type="matrix" values="0 0 0 0 0 0 0 0 0 0 0 0 0 0 0 0 0 0 0.25 0"/>
<feBlend mode="normal" in2="shape" result="effect1_innerShadow_0_1"/>
</filter>
<filter id="filter1_d_0_1" x="58" y="157" width="202" height="142" filterUnits="userSpaceOnUse" color-interpolation-filters="sRGB">
<feFlood flood-opacity="0" result="BackgroundImageFix"/>
<feColorMatrix in="SourceAlpha" type="matrix" values="0 0 0 0 0 0 0 0 0 0 0 0 0 0 0 0 0 0 127 0" result="hardAlpha"/>
<feOffset dy="4"/>
<feGaussianBlur stdDeviation="2"/>
<feComposite in2="hardAlpha" operator="out"/>
<feColorMatrix type="matrix" values="0 0 0 0 0 0 0 0 0 0 0 0 0 0 0 0 0 0 0.25 0"/>
<feBlend mode="normal" in2="BackgroundImageFix" result="effect1_dropShadow_0_1"/>
<feBlend mode="normal" in="SourceGraphic" in2="effect1_dropShadow_0_1" result="shape"/>
</filter>
<filter id="filter2_i_0_1" x="113.548" y="199.26" width="91.6014" height="37.4271" filterUnits="userSpaceOnUse" color-interpolation-filters="sRGB">
<feFlood flood-opacity="0" result="BackgroundImageFix"/>
<feBlend mode="normal" in="SourceGraphic" in2="BackgroundImageFix" result="shape"/>
<feColorMatrix in="SourceAlpha" type="matrix" values="0 0 0 0 0 0 0 0 0 0 0 0 0 0 0 0 0 0 127 0" result="hardAlpha"/>
<feOffset dy="10"/>
<feGaussianBlur stdDeviation="2"/>
<feComposite in2="hardAlpha" operator="arithmetic" k2="-1" k3="1"/>
<feColorMatrix type="matrix" values="0 0 0 0 0 0 0 0 0 0 0 0 0 0 0 0 0 0 0.25 0"/>
<feBlend mode="normal" in2="shape" result="effect1_innerShadow_0_1"/>
</filter>
<filter id="filter3_i_0_1" x="62.0278" y="172.391" width="31.9874" height="91.1667" filterUnits="userSpaceOnUse" color-interpolation-filters="sRGB">
<feFlood flood-opacity="0" result="BackgroundImageFix"/>
<feBlend mode="normal" in="SourceGraphic" in2="BackgroundImageFix" result="shape"/>
<feColorMatrix in="SourceAlpha" type="matrix" values="0 0 0 0 0 0 0 0 0 0 0 0 0 0 0 0 0 0 127 0" result="hardAlpha"/>
<feOffset dy="10"/>
<feGaussianBlur stdDeviation="2"/>
<feComposite in2="hardAlpha" operator="arithmetic" k2="-1" k3="1"/>
<feColorMatrix type="matrix" values="0 0 0 0 0 0 0 0 0 0 0 0 0 0 0 0 0 0 0.25 0"/>
<feBlend mode="normal" in2="shape" result="effect1_innerShadow_0_1"/>
</filter>
<filter id="filter4_i_0_1" x="223.985" y="172.391" width="31.9874" height="91.1667" filterUnits="userSpaceOnUse" color-interpolation-filters="sRGB">
<feFlood flood-opacity="0" result="BackgroundImageFix"/>
<feBlend mode="normal" in="SourceGraphic" in2="BackgroundImageFix" result="shape"/>
<feColorMatrix in="SourceAlpha" type="matrix" values="0 0 0 0 0 0 0 0 0 0 0 0 0 0 0 0 0 0 127 0" result="hardAlpha"/>
<feOffset dy="10"/>
<feGaussianBlur stdDeviation="2"/>
<feComposite in2="hardAlpha" operator="arithmetic" k2="-1" k3="1"/>
<feColorMatrix type="matrix" values="0 0 0 0 0 0 0 0 0 0 0 0 0 0 0 0 0 0 0.25 0"/>
<feBlend mode="normal" in2="shape" result="effect1_innerShadow_0_1"/>
</filter>
<filter id="filter5_i_0_1" x="85.0153" y="155.641" width="31.9874" height="135.833" filterUnits="userSpaceOnUse" color-interpolation-filters="sRGB">
<feFlood flood-opacity="0" result="BackgroundImageFix"/>
<feBlend mode="normal" in="SourceGraphic" in2="BackgroundImageFix" result="shape"/>
<feColorMatrix in="SourceAlpha" type="matrix" values="0 0 0 0 0 0 0 0 0 0 0 0 0 0 0 0 0 0 127 0" result="hardAlpha"/>
<feOffset dy="10"/>
<feGaussianBlur stdDeviation="2"/>
<feComposite in2="hardAlpha" operator="arithmetic" k2="-1" k3="1"/>
<feColorMatrix type="matrix" values="0 0 0 0 0 0 0 0 0 0 0 0 0 0 0 0 0 0 0.25 0"/>
<feBlend mode="normal" in2="shape" result="effect1_innerShadow_0_1"/>
</filter>
<filter id="filter6_i_0_1" x="200.997" y="155.641" width="31.9874" height="135.833" filterUnits="userSpaceOnUse" color-interpolation-filters="sRGB">
<feFlood flood-opacity="0" result="BackgroundImageFix"/>
<feBlend mode="normal" in="SourceGraphic" in2="BackgroundImageFix" result="shape"/>
<feColorMatrix in="SourceAlpha" type="matrix" values="0 0 0 0 0 0 0 0 0 0 0 0 0 0 0 0 0 0 127 0" result="hardAlpha"/>
<feOffset dy="10"/>
<feGaussianBlur stdDeviation="2"/>
<feComposite in2="hardAlpha" operator="arithmetic" k2="-1" k3="1"/>
<feColorMatrix type="matrix" values="0 0 0 0 0 0 0 0 0 0 0 0 0 0 0 0 0 0 0.25 0"/>
<feBlend mode="normal" in2="shape" result="effect1_innerShadow_0_1"/>
</filter>
<clipPath id="clip0_0_1">
<rect x="62" y="157" width="194" height="134" fill="white"/>
</clipPath>
</defs>
</svg>
