<svg width="314" height="341" viewBox="0 0 314 341" fill="none" xmlns="http://www.w3.org/2000/svg">
<g filter="url(#filter0_d_4_32)">
<path d="M159 38H46.8505V38C25.9462 38 9 54.9462 9 75.8505V108.161M159 328H46.8505V328C25.9462 328 9 311.054 9 290.15V108.161M9 108.161H159" stroke="white" stroke-width="10"/>
<rect x="51" width="18" height="70" fill="white"/>
<path d="M155 38H267.15V38C288.054 38 305 54.9462 305 75.8505V108.161M155 328H267.15V328C288.054 328 305 311.054 305 290.15V108.161M305 108.161H155" stroke="white" stroke-width="10"/>
<rect width="18" height="70" transform="matrix(-1 0 0 1 264 0)" fill="white"/>
<g filter="url(#filter1_d_4_32)">
<path d="M157.5 190.46C153.424 190.46 149.387 191.263 145.622 192.823C141.856 194.383 138.434 196.669 135.551 199.551C132.669 202.434 130.383 205.856 128.823 209.622C127.263 213.387 126.46 217.424 126.46 221.5C126.46 225.576 127.263 229.613 128.823 233.378C130.383 237.144 132.669 240.566 135.551 243.449C138.434 246.331 141.856 248.617 145.622 250.177C149.387 251.737 153.424 252.54 157.5 252.54C165.732 252.54 173.627 249.27 179.449 243.449C185.27 237.627 188.54 229.732 188.54 221.5C188.54 213.268 185.27 205.373 179.449 199.551C173.627 193.73 165.732 190.46 157.5 190.46V190.46ZM136.023 221.5C136.023 215.804 138.285 210.341 142.313 206.313C146.341 202.285 151.804 200.023 157.5 200.023C163.196 200.023 168.659 202.285 172.687 206.313C176.715 210.341 178.977 215.804 178.977 221.5C178.977 227.196 176.715 232.659 172.687 236.687C168.659 240.715 163.196 242.977 157.5 242.977C151.804 242.977 146.341 240.715 142.313 236.687C138.285 232.659 136.023 227.196 136.023 221.5Z" fill="white"/>
<path d="M174.674 157.842C169.635 140.726 145.365 140.726 140.326 157.842L139.427 160.893C139.075 162.088 138.46 163.189 137.627 164.115C136.795 165.041 135.765 165.77 134.614 166.246C133.464 166.723 132.221 166.937 130.977 166.871C129.733 166.805 128.52 166.461 127.426 165.865L124.634 164.335C108.951 155.806 91.8057 172.961 100.345 188.634L101.865 191.426C102.461 192.52 102.805 193.733 102.871 194.977C102.937 196.221 102.723 197.464 102.246 198.614C101.77 199.765 101.041 200.795 100.115 201.627C99.1887 202.46 98.0878 203.075 96.8929 203.427L93.8425 204.326C76.7256 209.365 76.7256 233.635 93.8425 238.674L96.8929 239.573C98.0878 239.925 99.1887 240.54 100.115 241.373C101.041 242.205 101.77 243.235 102.246 244.386C102.723 245.536 102.937 246.779 102.871 248.023C102.805 249.267 102.461 250.48 101.865 251.574L100.335 254.366C91.8057 270.049 108.951 287.204 124.634 278.655L127.426 277.135C128.52 276.539 129.733 276.195 130.977 276.129C132.221 276.064 133.464 276.277 134.614 276.754C135.765 277.23 136.795 277.959 137.627 278.885C138.46 279.811 139.075 280.912 139.427 282.107L140.326 285.158C145.365 302.274 169.635 302.274 174.674 285.158L175.573 282.107C175.925 280.912 176.54 279.811 177.373 278.885C178.205 277.959 179.235 277.23 180.386 276.754C181.536 276.277 182.779 276.064 184.023 276.129C185.267 276.195 186.48 276.539 187.574 277.135L190.366 278.665C206.049 287.204 223.204 270.039 214.655 254.366L213.135 251.574C212.539 250.48 212.195 249.267 212.129 248.023C212.064 246.779 212.277 245.536 212.754 244.386C213.23 243.235 213.959 242.205 214.885 241.373C215.811 240.54 216.912 239.925 218.107 239.573L221.158 238.674C238.274 233.635 238.274 209.365 221.158 204.326L218.107 203.427C216.912 203.075 215.811 202.46 214.885 201.627C213.959 200.795 213.23 199.765 212.754 198.614C212.277 197.464 212.064 196.221 212.129 194.977C212.195 193.733 212.539 192.52 213.135 191.426L214.665 188.634C223.204 172.951 206.039 155.806 190.366 164.345L187.574 165.865C186.48 166.461 185.267 166.805 184.023 166.871C182.779 166.937 181.536 166.723 180.386 166.246C179.235 165.77 178.205 165.041 177.373 164.115C176.54 163.189 175.925 162.088 175.573 160.893L174.674 157.842V157.842ZM149.496 160.549C151.849 152.564 163.151 152.564 165.504 160.549L166.403 163.599C167.158 166.163 168.478 168.525 170.265 170.512C172.052 172.499 174.262 174.061 176.731 175.083C179.2 176.106 181.867 176.563 184.536 176.42C187.205 176.278 189.808 175.54 192.155 174.261L194.937 172.731C202.243 168.763 210.237 176.748 206.259 184.063L204.739 186.855C203.462 189.202 202.726 191.805 202.585 194.473C202.444 197.141 202.902 199.807 203.925 202.275C204.949 204.744 206.511 206.952 208.498 208.738C210.486 210.524 212.847 211.842 215.411 212.597L218.451 213.496C226.436 215.849 226.436 227.151 218.451 229.504L215.401 230.403C212.837 231.158 210.475 232.478 208.488 234.265C206.501 236.052 204.939 238.262 203.917 240.731C202.894 243.2 202.437 245.867 202.58 248.536C202.722 251.205 203.46 253.808 204.739 256.155L206.269 258.937C210.237 266.243 202.253 274.237 194.937 270.259L192.155 268.739C189.807 267.46 187.203 266.722 184.534 266.581C181.865 266.439 179.198 266.897 176.728 267.92C174.259 268.943 172.05 270.507 170.263 272.495C168.476 274.483 167.157 276.846 166.403 279.411L165.504 282.451C163.151 290.436 151.849 290.436 149.496 282.451L148.597 279.401C147.841 276.839 146.522 274.478 144.735 272.492C142.949 270.506 140.741 268.944 138.273 267.922C135.805 266.9 133.139 266.443 130.471 266.584C127.804 266.725 125.201 267.461 122.855 268.739L120.063 270.269C112.757 274.237 104.763 266.253 108.741 258.937L110.261 256.155C111.542 253.808 112.281 251.204 112.425 248.534C112.568 245.864 112.111 243.195 111.089 240.725C110.066 238.254 108.504 236.044 106.515 234.256C104.527 232.468 102.164 231.148 99.5991 230.393L96.5487 229.494C88.564 227.142 88.564 215.839 96.5487 213.487L99.5991 212.588C102.16 211.831 104.519 210.512 106.505 208.726C108.49 206.941 110.051 204.733 111.073 202.267C112.095 199.8 112.552 197.135 112.412 194.469C112.272 191.802 111.537 189.201 110.261 186.855L108.731 184.063C104.763 176.757 112.748 168.763 120.063 172.741L122.855 174.261C125.201 175.539 127.804 176.275 130.471 176.416C133.139 176.558 135.805 176.1 138.273 175.078C140.741 174.056 142.949 172.494 144.735 170.508C146.522 168.522 147.841 166.161 148.597 163.599L149.496 160.549V160.549Z" fill="white"/>
</g>
</g>
<defs>
<filter id="filter0_d_4_32" x="0" y="0" width="314" height="341" filterUnits="userSpaceOnUse" color-interpolation-filters="sRGB">
<feFlood flood-opacity="0" result="BackgroundImageFix"/>
<feColorMatrix in="SourceAlpha" type="matrix" values="0 0 0 0 0 0 0 0 0 0 0 0 0 0 0 0 0 0 127 0" result="hardAlpha"/>
<feOffset dy="4"/>
<feGaussianBlur stdDeviation="2"/>
<feComposite in2="hardAlpha" operator="out"/>
<feColorMatrix type="matrix" values="0 0 0 0 0 0 0 0 0 0 0 0 0 0 0 0 0 0 0.25 0"/>
<feBlend mode="normal" in2="BackgroundImageFix" result="effect1_dropShadow_4_32"/>
<feBlend mode="normal" in="SourceGraphic" in2="effect1_dropShadow_4_32" result="shape"/>
</filter>
<filter id="filter1_d_4_32" x="77" y="145" width="161" height="161" filterUnits="userSpaceOnUse" color-interpolation-filters="sRGB">
<feFlood flood-opacity="0" result="BackgroundImageFix"/>
<feColorMatrix in="SourceAlpha" type="matrix" values="0 0 0 0 0 0 0 0 0 0 0 0 0 0 0 0 0 0 127 0" result="hardAlpha"/>
<feOffset dy="4"/>
<feGaussianBlur stdDeviation="2"/>
<feColorMatrix type="matrix" values="0 0 0 0 0 0 0 0 0 0 0 0 0 0 0 0 0 0 0.25 0"/>
<feBlend mode="normal" in2="BackgroundImageFix" result="effect1_dropShadow_4_32"/>
<feBlend mode="normal" in="SourceGraphic" in2="effect1_dropShadow_4_32" result="shape"/>
</filter>
</defs>
</svg>
