<svg width="283" height="233" viewBox="0 0 283 233" fill="none" xmlns="http://www.w3.org/2000/svg">
<g filter="url(#filter0_d_2_2)">
<path d="M34.5 118.5L26.0857 109.419C2.88281 84.3785 4.4899 45.2382 29.6675 22.184V22.184C51.3596 2.32137 84.0726 0.579816 107.751 18.027L143 44L177.289 18.7344C201.273 1.06235 234.571 3.57062 255.636 24.6361V24.6361C277.862 46.8616 279.268 82.4381 258.867 106.349L248.5 118.5M34.5 118.5L67 147.625L143 217L219 147.625L248.5 118.5M34.5 118.5H123L131 85.125L143 118.5L153.5 147.625L162.5 118.5H248.5" stroke="white" stroke-width="11"/>
</g>
<defs>
<filter id="filter0_d_2_2" x="0.181732" y="0.526932" width="282.602" height="231.92" filterUnits="userSpaceOnUse" color-interpolation-filters="sRGB">
<feFlood flood-opacity="0" result="BackgroundImageFix"/>
<feColorMatrix in="SourceAlpha" type="matrix" values="0 0 0 0 0 0 0 0 0 0 0 0 0 0 0 0 0 0 127 0" result="hardAlpha"/>
<feOffset dy="4"/>
<feGaussianBlur stdDeviation="2"/>
<feColorMatrix type="matrix" values="0 0 0 0 0 0 0 0 0 0 0 0 0 0 0 0 0 0 0.25 0"/>
<feBlend mode="normal" in2="BackgroundImageFix" result="effect1_dropShadow_2_2"/>
<feBlend mode="normal" in="SourceGraphic" in2="effect1_dropShadow_2_2" result="shape"/>
</filter>
</defs>
</svg>
